<svg width="533" height="710" viewBox="0 0 533 710" fill="none" xmlns="http://www.w3.org/2000/svg">
<path d="M228.973 411.8C228.973 411.8 229.286 412.107 229.869 412.68C230.442 413.264 231.348 414.055 232.431 415.071C234.671 417.055 237.905 419.795 241.957 422.581C243.983 423.988 246.223 425.373 248.64 426.701C249.827 427.394 251.124 427.941 252.395 428.592C253.671 429.227 255.051 429.691 256.39 430.279C257.056 430.592 257.78 430.758 258.478 431.003C259.181 431.227 259.89 431.456 260.598 431.696C261.291 431.956 262.041 432.076 262.78 432.243C263.509 432.42 264.244 432.592 264.983 432.774C267.957 433.321 270.999 433.769 274.087 433.805L275.238 433.878L275.53 433.899L275.681 433.915H275.718C275.801 433.915 275.119 433.935 275.426 433.92H275.509L276.15 433.883L278.697 433.743L279.973 433.67C280.416 433.654 280.676 433.555 281.025 433.514L283.035 433.175C283.379 433.118 283.692 433.102 284.051 433.019L285.114 432.711C285.832 432.54 286.541 432.352 287.244 432.175C288.655 431.784 289.994 431.175 291.374 430.748C292.713 430.149 294.015 429.555 295.301 428.977C296.546 428.29 297.801 427.665 298.989 426.967C301.353 425.56 303.572 424.113 305.572 422.665C309.582 419.769 312.822 417.014 315.077 415.034C316.192 414.014 317.072 413.211 317.676 412.67C318.275 412.107 318.587 411.81 318.587 411.81C318.587 411.81 318.093 413.519 316.723 416.284C315.364 419.055 313.145 422.915 309.692 427.045C308.864 428.118 307.848 429.081 306.869 430.18C305.869 431.253 304.697 432.217 303.551 433.3C302.379 434.347 301.035 435.269 299.723 436.295C298.343 437.243 296.864 438.118 295.364 439.019C293.78 439.795 292.192 440.649 290.473 441.311C289.614 441.618 288.739 441.93 287.853 442.253L286.525 442.696C286.062 442.837 285.556 442.92 285.067 443.035C284.088 443.243 283.088 443.446 282.103 443.654C281.624 443.738 281.051 443.883 280.645 443.91L279.374 443.998L276.822 444.186L276.186 444.232L276.072 444.227L275.697 444.243H275.65L275.478 444.238L275.129 444.222L273.718 444.154C269.968 444.04 266.223 443.467 262.65 442.535C260.879 441.988 259.098 441.54 257.436 440.826C255.785 440.087 254.108 439.488 252.592 438.618C251.092 437.727 249.54 436.998 248.197 436.014C246.853 435.019 245.457 434.191 244.285 433.134C241.853 431.139 239.744 429.071 237.962 427.035C236.191 425.004 234.728 423.019 233.551 421.196C232.363 419.384 231.488 417.696 230.801 416.321C230.098 414.941 229.681 413.79 229.384 413.03C229.087 412.227 228.973 411.8 228.973 411.8L228.973 411.8Z" fill="white"/>
<path d="M122.826 219C122.826 219 123.019 218.214 123.514 216.776C123.759 216.057 124.066 215.172 124.472 214.141C124.847 213.094 125.337 211.932 125.92 210.63C127.055 208.016 128.55 204.891 130.446 201.401C131.378 199.646 132.498 197.854 133.613 195.911C134.769 194.005 136.076 192.057 137.399 189.99C138.816 187.99 140.295 185.911 141.826 183.755C143.441 181.667 145.113 179.5 146.873 177.312C148.686 175.172 150.561 172.969 152.519 170.755C154.519 168.588 156.587 166.396 158.722 164.182C160.925 162.047 163.17 159.88 165.436 157.677C167.795 155.578 170.186 153.458 172.628 151.354C175.102 149.286 177.639 147.276 180.201 145.26L182.279 143.641L184.248 142.266L188.196 139.51C189.456 138.583 190.951 137.724 192.41 136.87L196.779 134.292C198.227 133.391 199.691 132.703 201.154 131.964C202.618 131.234 204.076 130.5 205.524 129.771C211.383 126.969 217.284 124.589 223.055 122.505C228.836 120.458 234.492 118.729 239.899 117.276C245.31 115.844 250.466 114.656 255.243 113.729C260.024 112.797 264.42 112.073 268.331 111.547C272.237 110.979 275.68 110.672 278.503 110.422C281.316 110.146 283.55 110.078 285.066 109.99C286.581 109.943 287.389 109.922 287.389 109.922C287.389 109.922 284.305 110.839 278.894 112.437C277.534 112.833 276.05 113.297 274.435 113.812C272.816 114.318 271.066 114.833 269.206 115.453C267.347 116.052 265.362 116.646 263.295 117.349C261.227 118.042 259.029 118.713 256.774 119.531C252.243 121.052 247.373 122.792 242.269 124.698C237.159 126.604 231.847 128.745 226.405 131.052C223.733 132.297 220.941 133.406 218.207 134.724C216.847 135.38 215.483 136.052 214.108 136.724C212.733 137.396 211.316 137.995 209.988 138.755C207.316 140.234 204.493 141.635 201.894 143.182L198.004 145.521C196.707 146.297 195.405 147.041 194.082 148.015L190.118 150.745L188.134 152.104L186.415 153.432C183.951 155.364 181.405 157.187 178.988 159.12C176.597 161.099 174.207 163.026 171.837 164.927C169.535 166.911 167.274 168.885 165.04 170.818C162.858 172.818 160.722 174.781 158.628 176.703C156.561 178.651 154.613 180.646 152.639 182.51C150.748 184.458 148.904 186.349 147.128 188.187C145.404 190.068 143.733 191.896 142.123 193.641C140.571 195.437 139.076 197.167 137.665 198.807C136.3 200.489 134.962 202.068 133.769 203.588C131.378 206.641 129.305 209.328 127.706 211.63C126.092 213.922 124.852 215.745 124.055 217.026C123.243 218.297 122.826 219 122.826 219L122.826 219Z" fill="white"/>
<path d="M119.906 218.027C119.906 218.027 120.161 217.032 120.646 215.167C121.161 213.308 121.885 210.568 122.958 207.131C124.01 203.688 125.297 199.506 126.969 194.771C128.599 190.021 130.495 184.683 132.787 178.949C135.042 173.194 137.573 166.985 140.547 160.542C143.495 154.089 146.693 147.303 150.396 140.463C154.068 133.609 158.141 126.641 162.724 119.786C167.302 112.932 172.401 106.198 178.271 99.9368C181.218 96.8223 184.385 93.8587 187.844 91.1504C189.552 89.7859 191.385 88.5097 193.265 87.3275C195.161 86.1608 197.26 85.0775 198.969 84.2285C202.62 82.39 206.01 80.614 209.422 78.7755C212.828 76.9161 216.14 74.9995 219.396 73.088C225.859 69.2131 232.021 65.2859 237.698 61.312C240.542 59.3328 243.24 57.312 245.86 55.3536C248.479 53.4057 250.969 51.4629 253.329 49.5515C258.011 45.7077 262.23 42.0567 265.87 38.6973C269.485 35.3224 272.573 32.2963 275.047 29.7129C277.49 27.114 279.407 25.0463 280.641 23.5827C281.896 22.1243 282.537 21.3223 282.537 21.3223C282.537 21.3223 282.094 22.2546 281.13 23.9368C280.162 25.6087 278.714 28.0565 276.641 31.0201C274.589 33.9993 271.995 37.5671 268.75 41.4368C265.531 45.3275 261.74 49.6035 257.313 53.9889C252.922 58.416 247.933 62.9941 242.381 67.4943C236.839 72.0203 230.813 76.5724 224.287 80.8796C221.048 83.0619 217.662 85.1504 214.209 87.2129C210.761 89.2807 207.116 91.3119 203.6 93.166C201.735 94.1504 200.246 94.9629 198.704 95.9577C197.189 96.9786 195.657 98.0255 194.194 99.2285C191.246 101.567 188.444 104.239 185.772 107.077C180.386 112.739 175.522 119.051 170.975 125.473C166.443 131.916 162.256 138.51 158.334 144.989C154.443 151.495 150.756 157.854 147.417 163.984C144.099 170.13 140.975 175.958 138.157 181.396C135.386 186.855 132.849 191.865 130.594 196.308C128.375 200.782 126.448 204.678 124.86 207.891C121.704 214.334 119.907 218.027 119.907 218.027L119.906 218.027Z" fill="white"/>
<path d="M290.08 19.6253C290.08 19.6253 290.669 19.3128 291.788 18.7295C292.903 18.1774 294.538 17.318 296.663 16.3649C300.898 14.3961 307.033 11.7504 314.601 9.09934C322.179 6.46388 331.163 3.72961 341.257 1.97428C346.319 1.13053 351.642 0.474276 357.387 0.719063C360.262 0.85969 363.278 1.16698 366.481 2.23986C367.273 2.5159 368.096 2.84402 368.908 3.23986L369.528 3.55236L369.679 3.63569L369.762 3.68256L369.965 3.80236L370.174 3.92736C370.486 4.12006 370.674 4.21902 371.085 4.49506C371.476 4.75548 371.877 5.02632 372.221 5.28673L373.184 6.04194C373.799 6.54715 374.392 7.06277 374.945 7.59408C379.335 11.8858 382.434 16.5525 385.195 21.2341C387.95 25.9163 390.252 30.6507 392.288 35.2701C396.366 44.5305 399.372 53.3901 401.658 61.0674C403.934 68.7445 405.434 75.2394 406.361 79.8167C406.856 82.1031 407.137 83.9157 407.361 85.1501C407.549 86.3897 407.653 87.0459 407.653 87.0459C407.653 87.0459 407.356 86.447 406.793 85.3377C406.257 84.2127 405.403 82.5825 404.418 80.4835C402.392 76.3169 399.528 70.3638 396.069 63.2289C392.627 56.1299 388.632 47.8649 384.049 39.2915C381.747 35.0155 379.283 30.677 376.632 26.4634C373.96 22.3123 371.054 18.1613 367.819 15.0989C367.424 14.703 367.028 14.3593 366.627 14.0155L366.038 13.5468L365.559 13.1978C365.434 13.0937 365.043 12.8697 364.799 12.7135L364.59 12.5885C364.538 12.5572 364.819 12.7291 364.689 12.6458L364.668 12.6301L364.596 12.5989L364.335 12.4583C363.976 12.2812 363.564 12.0989 363.127 11.953C361.34 11.3333 359.111 10.9062 356.793 10.7447C352.148 10.3853 347.231 10.6457 342.471 11.0728C332.929 11.9843 323.877 13.5468 316.127 14.8906C300.496 17.7187 290.08 19.625 290.08 19.625V19.6253Z" fill="white"/>
<path d="M416.667 91.6774C416.667 91.6774 416.907 91.5212 417.396 91.2608C417.881 91.0212 418.599 90.6358 419.537 90.2503C420.48 89.8597 421.636 89.4274 423 89.042C424.36 88.641 425.912 88.2712 427.646 88.0056C429.37 87.7295 431.282 87.5524 433.323 87.542C435.355 87.5264 437.542 87.6566 439.787 88.0576C440.907 88.2503 442.063 88.4483 443.209 88.8181C444.349 89.1462 445.537 89.4535 446.667 89.9899C447.803 90.4743 448.99 90.917 450.073 91.6097L451.73 92.5732C452.282 92.9013 452.792 93.3284 453.318 93.693L454.855 94.8961L455.032 95.0524L455.308 95.2972L455.381 95.3649L455.678 95.6565C455.886 95.8805 456.016 95.969 456.313 96.2972C457.573 97.6565 458.323 98.8336 458.995 100.125C459.344 100.761 459.599 101.412 459.875 102.042C460.084 102.683 460.339 103.334 460.49 103.969C460.839 105.245 461.073 106.485 461.193 107.703C461.662 112.537 460.829 116.677 459.818 120.037C458.782 123.396 457.48 125.995 456.443 127.74C455.396 129.485 454.636 130.38 454.636 130.38C454.636 130.38 454.563 129.24 454.428 127.235C454.303 125.266 454.152 122.5 453.865 119.344C453.558 116.208 453.146 112.599 452.157 109.344C451.662 107.729 451.032 106.224 450.245 105.021C449.881 104.417 449.318 103.854 449.126 103.604C449.068 103.521 448.766 103.266 448.605 103.104L448.308 102.828L448.225 102.761L448.188 102.729C448.016 102.563 448.407 102.922 448.355 102.886L448.35 102.88L448.209 102.781L447.126 101.995C446.766 101.724 446.449 101.422 446.063 101.182L444.907 100.479C444.162 99.9794 443.36 99.5471 442.542 99.1356C440.928 98.2867 439.219 97.5627 437.501 96.9168C435.782 96.2762 434.042 95.7137 432.355 95.245C430.667 94.7502 429.027 94.3335 427.48 93.9741C425.933 93.5991 424.485 93.2866 423.178 93.0158C421.881 92.7241 420.719 92.5106 419.751 92.3075C417.787 91.9116 416.667 91.6773 416.667 91.6773L416.667 91.6774Z" fill="white"/>
<path d="M407.667 146.453C407.667 146.453 408.568 146.339 410.073 146.245C411.568 146.146 413.657 146.089 416.084 146.104C417.266 146.12 418.547 146.141 419.907 146.162C421.214 146.193 422.589 146.229 424.006 146.261C425.396 146.266 426.782 146.313 428.11 146.255C428.766 146.24 429.417 146.208 430.006 146.13C430.61 146.094 431.172 146.011 431.636 145.906L432.443 145.703L432.995 145.552L433.391 145.432C433.891 145.276 434.573 145.052 435.162 144.849C436.37 144.401 437.594 143.922 438.792 143.385C439.985 142.849 441.167 142.287 442.302 141.714C443.443 141.151 444.552 140.578 445.573 140.031C447.73 138.896 449.532 137.964 450.792 137.297C452.172 136.609 452.948 136.214 452.948 136.214C452.948 136.214 452.875 137.13 452.443 138.63C451.995 140.125 451.198 142.182 449.802 144.422C449.099 145.537 448.255 146.698 447.255 147.854C446.24 148.995 445.073 150.156 443.729 151.214C442.381 152.266 440.87 153.276 439.188 154.083C438.339 154.516 437.532 154.87 436.521 155.203L435.766 155.448L435.183 155.625L434.48 155.828L433.641 155.995C431.438 156.411 429.49 156.359 427.651 156.188C425.823 155.984 424.125 155.641 422.552 155.177C420.969 154.734 419.516 154.177 418.162 153.594C416.813 153.01 415.584 152.37 414.48 151.729C412.271 150.443 410.558 149.13 409.412 148.13C408.261 147.146 407.667 146.453 407.667 146.453L407.667 146.453Z" fill="white"/>
<path d="M422.373 218.467C422.097 217.175 421.748 215.258 421.191 212.857C420.639 210.462 420.004 207.519 419.165 204.196C418.352 200.857 417.389 197.113 416.259 193.04C415.155 188.972 413.899 184.571 412.483 179.951C411.092 175.321 409.54 170.462 407.868 165.456C406.186 160.451 404.353 155.311 402.405 150.096C400.405 144.909 398.342 139.638 395.962 134.408C395.769 133.981 395.561 133.549 395.358 133.122C399.608 136.742 403.285 137.94 403.285 137.94C403.285 137.94 402.941 136.997 402.353 135.455C401.764 133.987 400.92 131.877 399.894 129.362C398.91 126.929 397.816 124.164 396.936 121.351C396.488 119.945 396.128 118.528 395.868 117.164C395.644 115.789 395.488 114.481 395.561 113.283C395.566 112.075 395.8 110.992 396.128 109.94C396.3 109.419 396.556 108.908 396.785 108.377L397.233 107.617L397.352 107.424C397.285 107.492 397.503 107.257 397.212 107.575L397.227 107.559L397.243 107.528L397.295 107.471L397.394 107.346L397.774 106.83C398.019 106.492 398.269 106.153 398.519 105.82C398.764 105.481 398.91 105.351 399.087 105.091C399.264 104.851 399.451 104.622 399.618 104.382C399.837 104.164 400.045 103.94 400.243 103.705C401.066 102.778 401.931 102.039 402.811 101.414C403.686 100.773 404.602 100.346 405.509 99.9813C406.399 99.6688 407.279 99.4605 408.045 99.3563C408.8 99.2678 409.451 99.2053 409.889 99.2313C410.337 99.2313 410.582 99.2522 410.582 99.2522C410.582 99.2522 410.081 98.3615 408.566 97.3407C407.811 96.8355 406.795 96.3459 405.514 95.9814C405.509 95.9814 405.493 95.9813 405.483 95.9761C405.347 95.7991 405.206 95.5855 405.014 95.3251C404.425 94.5386 403.587 93.3459 402.394 91.9292C400.087 89.049 396.639 85.0543 392.082 80.6375C387.529 76.2312 381.904 71.3406 375.123 66.8922C371.732 64.6734 368.05 62.538 363.961 60.7984C361.914 59.9339 359.763 59.1162 357.467 58.5588L355.727 58.1422L353.904 57.8349C352.789 57.6422 351.008 57.538 349.956 57.5276L348.394 57.5797L346.841 57.6109C345.982 57.6057 345.17 57.7099 344.222 57.5797C343.305 57.4911 342.383 57.4234 341.461 57.3765C340.503 57.2411 339.565 57.1161 338.623 56.9859C336.732 56.762 334.805 56.314 332.925 56.0224C331.019 55.6213 329.154 55.2307 327.3 54.8401C325.446 54.4078 323.628 53.9807 321.841 53.564C320.05 53.1213 318.289 52.6995 316.591 52.2776C313.159 51.413 309.899 50.5901 306.914 49.8349C303.888 49.0745 301.123 48.3765 298.67 47.7672C296.196 47.1682 294.039 46.6526 292.263 46.2308C288.696 45.387 286.612 44.96 286.612 44.96C286.612 44.96 287.055 45.2568 287.868 45.8193C288.696 46.3506 289.893 47.1943 291.482 48.1267C293.055 49.0746 294.977 50.2412 297.222 51.4704C299.461 52.71 302.029 54.0485 304.847 55.4444C307.69 56.8193 310.8 58.2465 314.133 59.6423C315.805 60.3506 317.56 61.0016 319.331 61.7048C321.117 62.3923 322.982 62.9965 324.857 63.6632C328.675 64.882 332.654 66.0695 336.925 66.8663C337.998 67.059 339.065 67.2569 340.159 67.4548C340.847 67.5382 341.534 67.6059 342.211 67.6736C342.659 68.4183 343.154 69.2413 343.722 70.158C345.008 72.2725 346.565 74.8246 348.394 77.7153C350.253 80.5956 352.336 83.8404 354.607 87.3768C359.227 94.356 364.612 102.502 370.378 111.231C371.789 113.414 373.284 115.606 374.696 117.856C375.425 118.971 376.154 120.096 376.883 121.226C377.586 122.362 378.289 123.502 378.998 124.648C379.737 125.784 380.404 126.934 381.081 128.08L382.112 129.804L382.315 130.169L382.56 130.632L383.06 131.549C383.701 132.789 384.227 133.804 384.846 135.06C385.451 136.263 386.029 137.492 386.602 138.731C388.893 143.695 391.117 148.784 393.253 153.814C395.404 158.861 397.508 163.824 399.555 168.637C401.607 173.46 403.602 178.121 405.482 182.538C407.362 186.96 409.19 191.132 410.904 194.986C412.596 198.84 414.175 202.356 415.607 205.47C417.013 208.59 418.326 211.278 419.362 213.517C420.393 215.752 421.279 217.481 421.846 218.679C422.445 219.866 422.747 220.502 422.747 220.502C422.753 220.486 422.622 219.762 422.372 218.465L422.373 218.467ZM378.113 105.717C374.879 101.504 371.691 97.5038 368.572 93.7955C365.468 90.0767 362.457 86.6289 359.619 83.4934C356.79 80.3579 354.129 77.535 351.744 75.0559C349.353 72.5819 347.218 70.4778 345.436 68.7538C345.113 68.4413 344.817 68.1548 344.52 67.8632C345.363 67.8996 346.259 67.8632 347.139 67.8684L348.056 67.8632L348.509 67.8579H348.91C348.999 67.8579 348.431 67.8892 348.691 67.8736L350.254 67.8423L350.645 67.8371L350.9 67.8579L351.395 67.9048C351.723 67.9204 352.035 67.9204 352.483 68.009L353.738 68.1861L355.014 68.4777C355.863 68.6444 356.738 68.9725 357.613 69.1704C358.478 69.4777 359.358 69.7329 360.244 70.0715C363.723 71.3996 367.171 73.0193 370.473 74.7433C377.082 78.2225 383.16 82.0141 388.38 85.3007C396.385 90.4309 402.349 94.2433 404.74 95.7851C403.625 95.582 402.375 95.4778 401.005 95.6601C400.161 95.7434 399.323 95.9674 398.427 96.1965C397.599 96.4934 396.672 96.7955 395.849 97.2434C395.417 97.4517 395 97.6861 394.562 97.9153C394.135 98.1757 393.719 98.483 393.276 98.7799C392.865 99.0611 392.359 99.4205 392.042 99.6966C391.719 99.9726 391.401 100.233 391.078 100.509C389.526 101.837 387.943 103.712 386.927 105.905C385.844 108.077 385.312 110.566 385.219 112.931C385.198 113.894 385.266 114.827 385.37 115.743C382.974 112.269 380.526 108.947 378.115 105.717L378.113 105.717Z" fill="white"/>
<path d="M531.387 341.92C530.871 339.769 530.147 337.748 529.34 335.706L527.949 332.67C527.72 332.139 527.48 331.707 527.246 331.279L526.543 329.983C524.465 326.248 522.147 322.68 519.246 319.493C516.407 316.285 513.095 313.451 509.449 311.331C505.834 309.191 501.871 307.8 498.079 307.264C494.262 306.696 490.657 306.889 487.486 307.488C481.116 308.712 476.569 311.384 473.652 313.41C472.668 314.076 471.897 314.706 471.261 315.248C464.006 301.852 457.865 291.483 453.469 284.341C448.751 276.732 446.068 272.774 446.068 272.774L445.193 273.326C445.193 273.326 447.6 277.425 451.818 285.295C456.037 293.159 462.162 304.732 469.245 319.773C476.287 334.836 484.552 353.268 492.438 374.967C496.397 385.81 500.251 397.472 503.631 409.909C507.053 422.326 510.006 435.565 511.829 449.467C513.563 463.347 514.313 477.967 512.277 492.655C510.089 507.691 507.089 523.128 502.683 538.603C500.491 546.332 497.959 554.081 495.043 561.78C492.136 569.483 488.928 577.176 485.24 584.723C481.574 592.295 477.454 599.733 472.923 606.988C468.423 614.29 463.485 621.404 458.063 628.223C447.25 641.9 434.521 654.463 420.183 665.285C405.839 676.082 389.907 685.197 372.865 692.025C364.345 695.458 355.548 698.275 346.559 700.379C342.069 701.431 337.533 702.286 332.96 702.879C330.689 703.155 328.361 703.426 326.121 703.556C323.819 703.723 321.491 703.749 319.116 703.801C300.256 704.181 281.283 703.421 262.392 701.593C224.658 697.895 187.231 689.286 152.715 675C118.22 660.781 86.7309 640.526 62.2203 615.208C56.09 608.89 50.4443 602.244 45.2989 595.348C40.1167 588.478 35.5177 581.301 31.4656 573.957C27.3667 566.639 23.9083 559.077 21.0072 551.43C20.2885 549.524 19.6165 547.587 18.9708 545.68C18.3718 543.748 17.7312 541.941 17.1583 539.909L16.2781 536.93L15.5385 534.076L14.7832 531.17L14.1322 528.243C12.4082 520.472 11.3041 512.669 10.6686 504.956C10.0176 497.237 9.88215 489.576 10.1894 482.055C10.778 467.003 13.1894 452.539 16.4706 438.888C19.7884 425.232 24.0644 412.383 28.8665 400.44C33.6009 388.477 38.7988 377.377 44.1118 367.175C54.7212 346.716 65.6585 329.753 75.0958 316.101C84.5958 302.481 92.6638 292.184 98.3038 285.289C103.934 278.373 107.153 274.873 107.153 274.873L106.413 274.149C106.413 274.149 102.929 277.435 96.7987 283.967C90.6997 290.524 81.9346 300.347 71.72 313.623C70.7408 314.883 69.7408 316.19 68.746 317.513C68.621 317.362 68.3345 317.013 67.8501 316.513C67.1835 315.841 66.2095 314.826 64.8137 313.722C62.0429 311.498 57.6835 308.508 51.4284 306.847C48.3087 306.034 44.7254 305.591 40.8763 305.888C37.0378 306.17 33.0066 307.279 29.2356 309.159C25.4596 311.024 21.9492 313.607 18.9023 316.617C15.7877 319.602 13.2252 322.992 10.8919 326.571L10.1054 327.815C9.84501 328.227 9.5846 328.638 9.31376 329.159L7.72522 332.102C6.7773 334.071 5.91268 336.044 5.24601 338.149C3.85534 342.3 3.17829 346.831 3.63149 351.253C4.02733 355.69 5.76694 359.831 8.05334 363.034C10.3555 366.268 13.1107 368.664 15.8033 370.419C21.2304 373.93 26.2408 375.289 29.7047 376.034C30.413 376.19 31.0484 376.305 31.637 376.383C28.2151 383.076 24.8818 390.102 21.7047 397.492C16.5432 409.617 11.8921 422.743 8.18335 436.795C4.44375 450.842 1.94374 465.899 1.13641 481.639C0.740571 489.514 0.808288 497.551 1.41766 505.696C2.04266 513.837 3.29794 522.056 5.13647 530.254L5.82918 533.337L6.63647 536.405L7.4646 539.54L8.36043 542.519C8.91251 544.478 9.67294 546.582 10.3604 548.629C11.1 550.655 11.8396 552.67 12.6364 554.676C15.8604 562.665 19.6312 570.566 24.1208 578.149C33.0896 593.305 44.4275 607.394 57.5742 619.878C64.1158 626.165 71.0795 632.081 78.3968 637.613C85.7042 643.17 93.3555 648.353 101.282 653.134C109.22 657.921 117.37 662.436 125.756 666.572C134.141 670.717 142.734 674.499 151.463 678.056C160.198 681.598 169.12 684.749 178.157 687.629C187.178 690.551 196.329 693.145 205.573 695.447C224.062 700.082 242.912 703.473 261.901 705.947C280.896 708.379 300.032 709.629 319.136 709.936C321.5 709.973 323.922 710.035 326.354 709.968C328.854 709.921 331.245 709.759 333.677 709.572C338.516 709.139 343.334 708.457 348.073 707.561C357.578 705.801 366.86 703.119 375.871 699.863C393.871 693.291 410.74 684.109 425.933 673.03C441.127 661.942 454.693 648.989 466.261 634.837C472.079 627.779 477.371 620.394 482.22 612.831C487.027 605.238 491.329 597.441 495.189 589.555C499.043 581.654 502.47 573.665 505.418 565.623C508.35 557.566 510.861 549.483 513.032 541.446C515.189 533.399 517.027 525.383 518.522 517.446C519.991 509.503 521.126 501.639 522.064 493.889C523.907 477.957 522.892 462.566 520.652 448.191C516.428 421.885 508.741 398.65 500.803 378.317C501.714 378.28 502.907 378.218 504.355 378.004C507.871 377.509 512.964 376.489 518.615 373.374C521.422 371.806 524.349 369.608 526.86 366.551C529.37 363.515 531.391 359.504 532.094 355.103C532.844 350.723 532.485 346.155 531.386 341.921L531.387 341.92ZM30.4267 374.113C28.9579 373.249 27.2236 372.098 25.3433 370.733C23.4684 369.358 21.463 367.723 19.5621 365.775C17.6558 363.827 15.9162 361.535 14.6872 358.988C13.4424 356.441 12.7236 353.65 12.7757 350.691C12.7809 347.733 13.5049 344.629 14.6924 341.478C15.2549 339.905 16.0882 338.342 16.8278 336.79L18.0726 334.566C18.2497 334.207 18.5205 333.79 18.7966 333.379L19.5935 332.139C21.5049 329.103 23.6976 326.15 26.0465 323.629C28.4059 321.098 30.9372 318.894 33.6247 317.186C36.3121 315.483 39.1403 314.244 42.0101 313.572C44.8695 312.869 47.7497 312.645 50.4528 312.759C53.1716 312.848 55.708 313.28 57.9476 313.806C60.1976 314.337 62.1664 314.931 63.7653 315.514C65.3539 316.118 66.6403 316.613 67.4841 317.009C68.1091 317.29 68.5206 317.488 68.6925 317.572C64.4425 323.197 59.9946 329.369 55.4477 336.156C52.6195 340.353 49.7498 344.76 46.8747 349.4C43.9841 354.036 41.083 358.906 38.2445 364.02C36.2289 367.619 34.2185 371.343 32.2393 375.182C31.6976 374.849 31.0882 374.505 30.4267 374.114L30.4267 374.113ZM522.973 353.905C522.817 356.864 521.906 359.593 520.489 362.046C519.077 364.504 517.187 366.676 515.145 368.468C513.119 370.291 510.994 371.775 509.036 373.015C507.072 374.249 505.265 375.27 503.734 376.041C502.406 376.713 501.322 377.213 500.494 377.593C499.838 375.911 499.187 374.254 498.525 372.619C494.166 361.775 489.635 351.832 485.296 342.723C480.958 333.603 476.718 325.368 472.77 317.999C472.426 317.364 472.093 316.744 471.755 316.124C472.525 315.869 473.458 315.577 474.546 315.249C476.187 314.77 478.197 314.317 480.473 313.942C482.749 313.582 485.312 313.322 488.02 313.426C490.739 313.515 493.588 313.931 496.39 314.832C499.203 315.707 501.937 317.14 504.499 319.02C507.067 320.911 509.437 323.285 511.614 325.978C513.77 328.661 515.76 331.759 517.452 334.916L518.171 336.207C518.411 336.64 518.65 337.072 518.812 337.447L519.9 339.754C520.536 341.369 521.249 342.978 521.697 344.588C522.666 347.796 523.166 350.947 522.973 353.905V353.905Z" fill="white"/>
<path d="M293.934 390.613C295.361 388.822 296.262 387.046 296.824 385.53C297.225 384.233 297.465 383.171 297.569 382.343C297.762 382.082 298.116 381.634 298.71 381.03C299.637 380.087 301.173 378.895 303.319 377.884C305.486 376.889 308.283 376.202 311.533 376.15C314.783 376.046 318.455 376.603 322.35 377.686C326.257 378.738 330.397 380.389 334.658 382.421C338.934 384.457 343.283 386.879 347.798 389.619C350.069 391.009 352.533 392.389 354.991 393.764C357.439 395.139 359.955 396.447 362.512 397.738C367.606 400.358 372.897 402.785 378.272 405.056C383.668 407.291 389.173 409.358 394.788 410.999C397.6 411.827 400.434 412.561 403.335 413.103L405.507 413.514C406.236 413.634 406.986 413.718 407.726 413.811L408.83 413.952L409.465 414.02L409.97 414.051C410.663 414.098 411.267 414.15 412.054 414.165C417.965 414.369 423.194 413.79 428.226 413.119C433.215 412.395 437.851 411.488 442.09 410.52C450.574 408.577 457.486 406.436 462.267 404.806C464.673 404.03 466.517 403.296 467.793 402.827C469.053 402.332 469.725 402.066 469.725 402.066C469.725 402.066 466.855 402.337 461.835 402.811C459.34 403.04 456.309 403.327 452.824 403.65C449.35 403.962 445.449 404.316 441.199 404.634C436.96 404.962 432.361 405.249 427.548 405.41C422.778 405.546 417.611 405.566 412.803 405.061C412.251 405.009 411.517 404.905 410.871 404.822L410.371 404.749C410.386 404.744 410.11 404.697 409.996 404.676L409.084 404.504L407.256 404.155L405.392 403.691C402.892 403.077 400.334 402.275 397.767 401.441C392.631 399.717 387.413 397.691 382.256 395.514C377.074 393.363 371.954 391.014 366.912 388.681C364.396 387.514 361.922 386.301 359.485 385.118C357.042 383.936 354.699 382.723 352.282 381.499C347.428 378.999 342.464 376.801 337.631 375.113C332.787 373.441 328.027 372.217 323.481 371.702C318.955 371.186 314.668 371.27 310.991 372.118C307.309 372.895 304.298 374.462 302.205 376.098C300.085 377.733 298.897 379.478 298.21 380.665C297.913 381.202 297.725 381.629 297.59 381.957C297.595 381.926 297.595 381.9 297.606 381.869C297.642 381.02 297.663 380.556 297.663 380.556C297.663 380.556 297.626 381.02 297.564 381.869C297.548 381.936 297.533 382.02 297.527 382.092C297.402 382.405 297.361 382.587 297.361 382.587C297.361 382.587 297.413 382.52 297.486 382.415C297.361 383.228 297.121 384.254 296.647 385.452C295.981 386.9 294.96 388.582 293.345 390.072C291.772 391.582 289.637 392.91 287.142 393.754C284.647 394.613 281.803 394.973 278.897 394.764C278.205 394.665 277.361 394.608 276.793 394.493L275.585 394.269L274.97 394.155L274.465 393.999C273.173 393.634 271.71 393.066 270.413 392.426C269.116 391.749 267.845 391.009 266.757 390.098C266.184 389.67 265.694 389.181 265.173 388.717C264.731 388.196 264.241 387.707 263.866 387.181C262.251 385.092 261.491 382.853 261.454 380.624V380.535L261.47 380.186L261.501 379.499L261.517 379.176L261.564 379.025C261.585 378.926 261.611 378.837 261.621 378.743C261.642 378.639 261.637 378.566 261.668 378.436L261.793 378.025C261.892 377.754 261.913 377.457 262.048 377.186C262.423 376.071 263.085 374.983 263.871 373.931C264.251 373.384 264.746 372.92 265.184 372.4C265.699 371.936 266.184 371.436 266.757 371.019C267.845 370.103 269.111 369.363 270.413 368.691C273.08 367.394 275.892 366.571 278.986 366.363C279.663 366.358 280.345 366.295 281.048 366.311C281.757 366.363 282.481 366.332 283.163 366.462C284.543 366.639 285.897 366.91 287.126 367.358C289.621 368.202 291.757 369.514 293.34 371.03C294.955 372.525 295.981 374.202 296.642 375.644C297.231 377.129 297.465 378.379 297.559 379.228C297.616 380.077 297.658 380.54 297.658 380.54C297.658 380.54 297.637 380.077 297.601 379.217C297.543 378.368 297.293 377.129 296.814 375.582C296.252 374.066 295.35 372.29 293.923 370.483C292.491 368.707 290.548 366.905 288.085 365.363C286.861 364.587 285.496 363.884 284.022 363.28C283.293 362.936 282.512 362.728 281.72 362.436C280.923 362.181 280.038 361.993 279.168 361.769C275.97 361.077 272.038 360.879 268.147 361.644C266.189 362.04 264.199 362.66 262.278 363.624C260.366 364.566 258.475 365.78 256.835 367.415C255.168 368.999 253.699 370.941 252.689 373.217C252.397 373.754 252.205 374.353 252.002 374.941L251.772 375.66C249.72 374.181 246.929 372.806 243.554 372.092C239.866 371.249 235.595 371.16 231.069 371.676C226.528 372.191 221.772 373.415 216.918 375.087C212.085 376.78 207.122 378.978 202.268 381.473C199.841 382.697 197.513 383.915 195.07 385.092C192.622 386.264 190.143 387.483 187.632 388.655C182.601 390.983 177.476 393.337 172.294 395.488C167.132 397.671 161.924 399.686 156.783 401.415C154.215 402.238 151.663 403.051 149.158 403.665L147.294 404.129L145.455 404.478L144.544 404.65C144.424 404.671 144.153 404.717 144.179 404.723L143.674 404.796C143.023 404.879 142.293 404.983 141.741 405.035C136.934 405.535 131.767 405.514 127.001 405.384C122.184 405.228 117.595 404.936 113.345 404.608C109.095 404.285 105.194 403.936 101.72 403.624C98.2412 403.301 95.1996 403.02 92.71 402.785C87.6944 402.316 84.8193 402.04 84.8193 402.04C84.8193 402.04 85.4912 402.301 86.7516 402.801C88.0224 403.264 89.8819 403.993 92.2776 404.78C97.0693 406.41 103.97 408.551 112.455 410.494C116.695 411.462 121.335 412.369 126.33 413.093C131.356 413.764 136.58 414.337 142.496 414.139C143.288 414.124 143.903 414.072 144.595 414.025L145.1 413.994L145.736 413.926L146.84 413.785C147.58 413.686 148.324 413.608 149.059 413.488L151.231 413.077C154.137 412.53 156.965 411.801 159.778 410.973C165.403 409.332 170.897 407.264 176.294 405.03C181.679 402.754 186.965 400.327 192.064 397.712C194.616 396.421 197.132 395.108 199.575 393.738C202.038 392.363 204.497 390.983 206.757 389.592C211.273 386.853 215.621 384.441 219.908 382.395C224.163 380.369 228.309 378.712 232.215 377.66C236.122 376.572 239.793 376.02 243.033 376.124C246.283 376.181 249.08 376.869 251.241 377.858C251.262 377.863 251.288 377.879 251.309 377.895L251.304 377.952L251.221 378.483L251.189 378.832L251.137 379.52L251.106 379.869L251.101 380.025L251.085 380.53C251.132 385.645 253.481 390.556 256.871 393.634C257.387 394.15 257.934 394.603 258.486 395.041C257.569 395.004 256.58 394.983 255.476 395.004C252.58 395.093 249.049 395.343 245.054 396.072C241.059 396.79 236.585 397.915 231.851 399.603C227.116 401.27 222.116 403.483 217.059 406.254C214.574 407.603 211.876 409.233 209.47 410.785C206.908 412.442 204.481 414.056 201.944 415.744C196.882 419.067 191.715 422.499 186.392 425.639C181.059 428.744 175.6 431.603 169.928 433.541C164.293 435.567 158.444 436.624 152.559 436.827C151.814 436.874 151.142 436.848 150.423 436.863C149.705 436.869 148.856 436.843 148.085 436.832C146.585 436.749 145.1 436.676 143.611 436.587C140.611 436.348 137.658 436.067 134.777 435.645C129.022 434.801 123.533 433.561 118.517 431.837C113.512 430.119 108.976 427.957 105.023 425.53C101.075 423.103 97.7884 420.348 95.0853 417.66C92.4291 414.936 90.3301 412.27 88.8301 409.926C87.3457 407.572 86.2937 405.603 85.6999 404.207C85.0801 402.816 84.8353 402.04 84.8353 402.04C84.8353 402.04 84.8666 402.853 85.1478 404.379C85.4551 405.889 85.9603 408.129 87.0437 410.832C88.127 413.54 89.6999 416.769 92.0853 420.15C94.4759 423.504 97.6113 427.051 101.59 430.29C105.564 433.53 110.325 436.509 115.678 438.936C121.022 441.369 126.954 443.244 133.173 444.551C136.288 445.217 139.47 445.723 142.699 446.113C144.34 446.28 145.991 446.441 147.658 446.608C148.465 446.66 149.204 446.733 150.074 446.764C150.949 446.78 151.866 446.822 152.715 446.811C156.163 446.796 159.668 446.535 163.137 445.947C166.6 445.358 170.022 444.436 173.329 443.306C179.954 440.983 186.032 437.723 191.605 434.191C197.199 430.645 202.329 426.853 207.189 423.119C209.606 421.29 212.023 419.379 214.247 417.655C216.627 415.816 218.736 414.316 221.002 412.743C225.481 409.712 229.893 407.098 234.122 404.962C238.34 402.811 242.366 401.124 246.023 399.827C249.679 398.54 252.95 397.592 255.7 396.999C257.387 396.65 258.835 396.379 260.075 396.186C260.804 396.65 261.544 397.082 262.299 397.441C264.21 398.41 266.195 399.014 268.158 399.421C269.137 399.598 270.106 399.77 271.08 399.822C272.012 399.921 273.023 399.926 274.007 399.91L274.736 399.905L275.356 399.848C275.767 399.801 276.168 399.759 276.58 399.723C277.632 399.608 278.377 399.441 279.262 399.296C282.653 398.54 285.622 397.243 288.08 395.712C290.564 394.186 292.507 392.389 293.934 390.613L293.934 390.613Z" fill="white"/>
<path d="M465.747 409.96C464.247 412.304 462.148 414.97 459.481 417.694C456.783 420.377 453.486 423.137 449.549 425.564C445.606 427.991 441.059 430.147 436.049 431.871C431.039 433.595 425.559 434.83 419.794 435.679C416.904 436.095 413.956 436.382 410.945 436.622C409.466 436.71 407.982 436.788 406.482 436.866C405.706 436.872 404.851 436.903 404.143 436.898C403.424 436.882 402.747 436.903 402.008 436.861C396.122 436.658 390.284 435.59 384.638 433.575C378.961 431.642 373.513 428.783 368.18 425.674C362.862 422.538 357.695 419.101 352.628 415.778C350.091 414.085 347.654 412.476 345.102 410.819C342.706 409.267 340.003 407.632 337.513 406.288C332.451 403.517 327.456 401.299 322.721 399.637C317.987 397.95 313.523 396.825 309.518 396.106C305.518 395.377 301.982 395.127 299.096 395.038C293.289 394.918 290.07 395.731 290.07 395.731C290.07 395.731 290.883 395.752 292.398 395.918C293.909 396.069 296.107 396.434 298.857 397.007C301.607 397.606 304.872 398.554 308.534 399.835C312.185 401.142 316.211 402.819 320.435 404.971C324.659 407.106 329.076 409.721 333.555 412.752C335.831 414.325 337.93 415.83 340.305 417.663C342.529 419.387 344.951 421.299 347.362 423.127C352.216 426.861 357.362 430.663 362.946 434.2C368.524 437.731 374.608 440.997 381.222 443.314C384.529 444.439 387.941 445.361 391.415 445.955C394.878 446.543 398.389 446.804 401.837 446.82C402.686 446.835 403.597 446.788 404.477 446.773C405.352 446.741 406.081 446.668 406.894 446.616C408.55 446.45 410.201 446.288 411.842 446.122C415.081 445.731 418.253 445.226 421.363 444.559C427.581 443.252 433.503 441.377 438.863 438.945C444.206 436.517 448.972 433.533 452.945 430.299C456.924 427.049 460.07 423.512 462.45 420.158C464.825 416.778 466.409 413.549 467.497 410.84C468.586 408.137 469.096 405.898 469.393 404.387C469.674 402.866 469.706 402.049 469.706 402.049C469.706 402.049 469.461 402.825 468.841 404.215C468.284 405.637 467.221 407.611 465.747 409.96L465.747 409.96Z" fill="white"/>
<path d="M485.293 248.587L485.262 248.024L485.23 247.456C485.173 246.649 485.178 247.061 485.142 246.8L485.074 246.493L484.798 245.274C484.611 244.467 484.47 243.654 484.21 242.863C483.59 241.295 483.147 239.675 482.241 238.212C480.741 235.165 478.35 232.602 475.782 230.535L473.767 229.076C473.079 228.628 472.35 228.269 471.637 227.873C470.23 227.014 468.715 226.524 467.262 225.878C461.303 223.639 455.158 222.785 449.116 222.248C443.069 221.696 437.043 221.628 431.07 221.717C425.09 221.769 419.137 221.946 413.242 222.238C407.335 222.519 401.46 222.8 395.606 223.076C389.757 223.389 383.944 223.665 378.174 223.847C366.616 224.295 355.204 224.467 344.007 224.352C332.762 224.227 321.862 223.821 311.07 223.149C305.679 222.805 300.346 222.462 295.075 222.118C289.804 221.81 284.601 221.514 279.455 221.222C258.882 220.102 239.403 219.378 221.408 218.805C203.414 218.3 186.887 218.045 172.242 218.102C164.919 218.154 158.054 218.269 151.715 218.409C145.376 218.529 139.522 218.889 134.256 219.149C123.715 219.529 115.532 220.498 109.923 221.055C104.324 221.659 101.345 221.982 101.345 221.982L101.366 222.498L101.329 221.982C101.329 221.982 99.1626 221.409 95.3762 220.899C93.4803 220.654 91.1731 220.415 88.5221 220.279C85.871 220.154 82.871 220.128 79.5846 220.311C76.2982 220.488 72.7357 220.909 68.9283 221.701C65.1366 222.508 61.1106 223.785 57.0272 226.18C55.0012 227.404 52.9127 228.941 51.0532 231.186C50.1418 232.352 49.2824 233.649 48.7095 235.201C48.1418 236.738 47.8293 238.425 47.8866 240.045C47.9022 240.477 47.9543 240.956 48.0116 241.404C48.0324 241.623 48.0689 241.889 48.1106 242.055L48.2147 242.435L48.4856 243.435L48.7824 244.222C49.1991 245.253 49.621 246.29 50.0428 247.326C50.8501 249.389 52.0898 251.373 53.1574 253.321C53.6522 254.316 54.3657 255.232 54.9855 256.165C55.6261 257.092 56.1678 258.045 56.8448 258.941C58.2563 260.68 59.423 262.524 60.9594 264.112C62.3031 265.847 63.9854 267.232 65.4594 268.862C67.1468 270.211 68.7146 271.821 70.5583 272.982C72.3135 274.357 74.2302 275.305 76.152 276.29C77.1156 276.784 78.0947 277.05 79.0739 277.409C80.0531 277.706 81.0375 278.097 82.001 278.232C83.928 278.555 85.8551 278.935 87.6676 278.883C89.4802 278.915 91.2614 278.972 92.902 278.81C94.5531 278.654 96.1572 278.571 97.626 278.31C99.1052 278.081 100.501 277.795 101.808 277.534C104.412 276.935 106.652 276.258 108.47 275.638C112.038 274.326 114.048 273.264 114.048 273.264L113.991 272.748L114.058 273.264C114.058 273.264 117.053 272.988 122.668 272.488C126.944 272.076 132.756 271.435 139.886 270.628C139.714 270.816 139.522 271.024 139.267 271.295C138.563 272.092 137.491 273.243 136.241 274.774C134.97 276.305 133.428 278.149 131.741 280.331C130.053 282.514 128.188 284.998 126.225 287.758C122.287 293.274 117.944 299.894 113.683 307.222C111.532 310.879 109.428 314.733 107.386 318.707C105.35 322.686 103.386 326.78 101.548 330.952C99.7353 335.139 98.0219 339.384 96.5531 343.66C96.1885 344.733 95.8291 345.801 95.4645 346.863C95.1208 347.931 94.8239 349.019 94.501 350.082C93.8447 352.212 93.3291 354.374 92.8135 356.488C91.8812 360.774 91.199 364.998 90.9906 369.129C90.8395 373.275 91.1416 377.327 92.2875 381.025C92.4593 381.488 92.6312 381.941 92.7927 382.389L93.0479 383.056L93.1729 383.384L93.2771 383.644L93.35 383.78C93.7406 384.498 94.1208 385.186 94.4906 385.858C95.3916 387.275 96.2823 388.696 97.2458 389.769C99.1103 392.04 101.074 393.66 102.772 394.801C103.199 395.092 103.595 395.363 103.975 395.608C104.371 395.827 104.751 396.035 105.095 396.222C105.782 396.603 106.371 396.899 106.871 397.097C107.855 397.514 108.386 397.738 108.386 397.738C108.386 397.738 107.975 397.337 107.204 396.613C106.808 396.264 106.355 395.806 105.855 395.233C105.334 394.686 104.767 394.045 104.168 393.29C102.944 391.821 101.704 389.879 100.589 387.571C99.9905 386.399 99.5687 385.217 99.1051 383.905C98.8811 383.175 98.6572 382.42 98.4176 381.644C98.3186 380.993 98.2249 380.332 98.1103 379.66C97.7978 376.79 98.0895 373.493 98.7145 369.983C99.3811 366.457 100.449 362.748 101.642 358.915C102.928 355.076 104.36 351.144 105.944 347.149C107.548 343.16 109.204 339.108 111.006 335.097C112.725 331.05 114.605 327.056 116.381 323.082C118.22 319.123 120.027 315.228 121.772 311.462C125.287 303.873 128.569 296.795 131.381 290.733C134.173 284.623 136.428 279.472 137.975 275.831C138.772 274.034 139.334 272.56 139.751 271.592C139.928 271.159 140.063 270.831 140.162 270.581C142.298 270.342 144.532 270.086 146.897 269.826C152.11 269.227 157.871 268.706 164.137 268.04C167.272 267.795 170.538 267.545 173.923 267.279C175.616 267.144 177.335 267.008 179.085 266.868C180.84 266.784 182.616 266.696 184.428 266.607C188.048 266.456 191.793 266.175 195.621 266.123C199.439 266.087 203.366 266.034 207.397 265.988C208.407 265.982 209.413 265.941 210.444 265.956C211.48 265.993 212.527 266.024 213.579 266.061C215.678 266.133 217.803 266.201 219.954 266.279C222.105 266.352 224.282 266.43 226.48 266.498C228.413 266.571 230.756 266.79 232.954 266.925C241.928 267.56 251.277 268.217 260.954 268.904C270.637 269.571 280.673 270.076 290.985 270.623C296.131 270.868 301.37 271.118 306.657 271.368C311.959 271.54 317.318 271.706 322.74 271.884C333.583 272.18 344.677 272.43 355.953 272.399C374.604 272.399 393.781 272.107 413.297 270.941C413.386 271.186 413.484 271.472 413.62 271.831C414.063 272.967 414.641 274.659 415.464 276.774C417.052 281.029 419.354 287.066 422.146 294.253C424.922 301.445 428.151 309.805 431.427 318.774C433.047 323.264 434.677 327.899 436.25 332.618C437.786 337.337 439.266 342.139 440.5 346.957C441.776 351.748 442.786 356.582 443.354 361.233C443.885 365.868 443.922 370.399 442.922 373.998L442.839 374.342C442.87 374.269 442.75 374.582 442.911 374.186L442.88 374.28L442.833 374.384L442.76 374.602L442.438 375.441C442.229 376.003 442.005 376.561 441.802 377.123C441.594 377.727 441.37 378.118 441.151 378.54L440.536 379.837C440.161 380.717 439.521 381.571 439.052 382.436C438.552 383.311 437.88 384.04 437.333 384.852C434.922 387.936 431.995 390.415 428.969 392.332C425.953 394.264 422.854 395.66 420.016 396.753C417.156 397.79 414.563 398.592 412.391 399.108C410.219 399.613 408.469 400.04 407.276 400.248C406.083 400.488 405.438 400.613 405.438 400.613C405.438 400.613 406.089 400.696 407.302 400.832C408.521 400.967 410.312 401.139 412.62 401.144C414.932 401.175 417.75 401.087 420.99 400.628C424.229 400.134 427.891 399.269 431.734 397.649C435.573 396.03 439.583 393.582 443.099 390.071C444.875 388.316 446.453 386.363 447.932 384.113C448.292 383.524 448.651 382.941 449.016 382.342C449.359 381.743 449.739 381.118 449.958 380.608C450.213 380.076 450.474 379.535 450.734 378.993L451.125 378.18L451.229 377.977L451.276 377.873L451.297 377.826L451.411 377.555L451.583 377.035C452.052 375.644 452.583 374.222 452.786 372.821C452.922 372.118 453.068 371.404 453.177 370.701L453.37 368.602C453.63 365.795 453.547 363.045 453.338 360.316C452.922 354.873 451.823 349.571 450.51 344.399C449.12 339.237 447.536 334.19 445.703 329.347C443.896 324.493 441.917 319.821 439.896 315.352C435.812 306.446 431.489 298.409 427.515 291.707C423.541 284.993 419.916 279.582 417.271 275.868C415.974 273.993 414.859 272.582 414.14 271.602C413.953 271.363 413.781 271.154 413.646 270.977C417.62 270.733 421.614 270.472 425.62 270.154C437.489 269.144 449.469 267.8 461.469 264.967C464.464 264.248 467.464 263.384 470.443 262.326C473.422 261.243 476.417 260.024 479.313 258.061C480.74 256.998 482.208 255.91 483.406 254.17C484.047 253.394 484.49 252.332 484.901 251.3C485.057 250.66 485.182 249.993 485.266 249.337C485.287 249.18 485.318 248.988 485.318 248.873L485.293 248.587ZM479.079 248.139L479.074 248.701V248.983C479.059 249.05 479.022 249.035 479.007 249.066C478.923 249.139 478.887 249.206 478.887 249.295C478.663 249.602 478.579 249.983 478.21 250.331C477.678 251.071 476.658 251.759 475.647 252.42C473.512 253.706 470.855 254.66 468.168 255.446C465.47 256.238 462.663 256.873 459.819 257.389C454.132 258.472 448.319 259.186 442.496 259.732C436.663 260.3 430.824 260.727 424.98 261.024C401.611 262.248 378.45 262.097 356.054 261.696C344.861 261.441 333.835 261.212 323.043 260.889C312.262 260.55 301.704 260.217 291.423 259.894C270.844 259.139 251.387 258.425 233.428 257.764C232.293 257.727 231.173 257.691 230.053 257.649C228.887 257.628 227.871 257.576 226.559 257.602C224.366 257.623 222.184 257.654 220.027 257.685C217.871 257.706 215.751 257.738 213.642 257.769C212.595 257.774 211.553 257.79 210.512 257.805C209.465 257.837 208.408 257.92 207.366 257.972C203.204 258.232 199.152 258.488 195.209 258.732C191.282 259.014 187.517 259.519 183.85 259.889C182.022 260.081 180.22 260.279 178.444 260.472C176.683 260.696 174.949 260.951 173.246 261.201C169.85 261.706 166.569 262.196 163.428 262.66C157.178 263.774 151.413 264.696 146.256 265.753C135.923 267.738 127.866 269.472 122.35 270.561C116.86 271.66 113.928 272.248 113.897 272.248C113.897 272.248 111.704 271.696 107.923 271.279C106.048 271.035 103.818 270.811 101.277 270.639C100.006 270.524 98.6622 270.41 97.2611 270.347C95.8652 270.243 94.4069 270.144 92.8756 270.035C89.8444 269.878 86.662 269.482 83.3392 269.264C80.0684 268.92 76.4903 268.993 72.9329 268.04C71.0684 267.717 69.4174 266.837 67.6778 265.977C66.1256 264.863 64.5059 263.717 63.334 262.097C61.9747 260.654 61.084 258.805 60.1829 257.034C59.7663 256.123 59.4955 255.118 59.1725 254.159C58.8965 253.18 58.5528 252.253 58.4017 251.217C58.0892 249.17 57.61 247.258 57.485 245.201C57.36 244.201 57.2298 243.206 57.1048 242.217L56.9903 241.477L56.9746 241.389C57.0736 241.852 56.9955 241.488 57.0111 241.576V241.529L56.9955 241.337L56.9746 240.941L56.9434 240.545C56.9486 240.446 56.9798 240.456 56.9903 240.409C57.0215 240.337 57.0215 240.295 57.0423 240.206C57.2455 239.305 57.6465 238.696 58.5267 237.883C59.4278 237.107 60.7194 236.336 62.1726 235.675C65.1049 234.337 68.4434 233.264 71.6778 232.232C74.9174 231.186 78.1049 230.29 81.0841 229.43C84.0945 228.566 86.8549 227.764 89.3029 227.066C90.5424 226.701 91.6987 226.342 92.7769 225.998C93.8602 225.66 94.8446 225.373 95.7353 225.055C99.3134 223.889 101.371 223.029 101.386 223.024C101.438 223.024 104.433 223.061 110.011 223.139C115.636 223.196 123.913 223.081 134.361 223.54C136.975 223.623 139.72 223.707 142.606 223.795C145.496 223.878 148.507 223.91 151.658 224.092C157.965 224.415 164.783 224.733 172.064 225.009C186.638 225.8 203.08 226.545 221.023 227.597C229.997 228.061 239.351 228.54 249.023 229.029C253.862 229.311 258.789 229.498 263.794 229.701C268.804 229.894 273.882 230.154 279.039 230.29C284.19 230.415 289.435 230.535 294.722 230.665C300.024 230.722 305.383 230.79 310.804 230.852C321.653 230.873 332.862 230.493 344.107 229.852C366.648 228.613 389.81 226.41 413.352 225.394C425.097 224.951 437.014 224.722 448.702 226.087C454.493 226.842 460.306 227.962 465.494 230.191C470.629 232.462 475.067 235.925 477.15 240.743C477.806 241.868 478.046 243.217 478.478 244.446C478.65 245.081 478.707 245.769 478.837 246.425L479.004 247.42L479.051 247.665C479.051 247.649 479.051 247.665 479.056 247.701L479.051 248.139L479.079 248.139Z" fill="white"/>
<path d="M186.214 309.24C185.734 308.704 185.141 308.099 184.443 307.428C183.734 306.771 182.922 306.063 182 305.344C181.083 304.636 180.052 303.912 178.938 303.193C177.818 302.49 176.609 301.803 175.292 301.167C173.984 300.542 172.573 299.933 171.052 299.433C170.266 299.188 169.49 298.964 168.594 298.766L167.219 298.511C166.656 298.443 166.099 298.412 165.531 298.375H165.094L164.818 298.381L164.266 298.402L163.167 298.448C162.354 298.516 161.479 298.615 160.651 298.719C159.068 298.99 157.547 299.303 156.109 299.74C153.235 300.599 150.703 301.787 148.667 303.032C146.63 304.277 145.073 305.568 144.057 306.579C143.042 307.589 142.547 308.282 142.547 308.282C142.547 308.282 142.75 308.297 143.146 308.334C143.526 308.35 144.094 308.422 144.781 308.454C146.078 308.527 147.875 308.594 149.912 308.62C149.407 308.86 148.881 309.084 148.391 309.344C146.412 310.381 144.573 311.584 142.896 312.844C141.229 314.131 139.735 315.49 138.396 316.855C137.084 318.235 135.938 319.615 134.969 320.948C134.006 322.287 133.209 323.568 132.563 324.735C131.927 325.917 131.427 326.969 131.068 327.855C130.349 329.646 130.136 330.745 130.136 330.745C130.136 330.745 131.052 330.172 132.662 329.177C134.235 328.198 136.438 326.834 139.021 325.318C140.313 324.563 141.709 323.782 143.167 322.974C143.896 322.584 144.651 322.188 145.417 321.782C146.188 321.402 146.969 321.006 147.761 320.599C148.558 320.235 149.375 319.87 150.177 319.474C151 319.11 151.849 318.797 152.662 318.407C154.349 317.756 156.042 317.084 157.781 316.568L158.422 316.339L159.005 316.172L160.485 315.756C161.537 315.448 162.292 315.287 163.141 315.068C164.808 314.667 166.656 314.256 168.38 313.948C170.12 313.62 171.828 313.344 173.479 313.125C175.131 312.886 176.714 312.709 178.198 312.558C181.162 312.245 183.74 312.058 185.589 311.933C187.48 311.813 188.552 311.745 188.552 311.745C188.552 311.745 188.209 311.433 187.605 310.969C187.526 310.855 187.063 310.209 186.214 309.24L186.214 309.24Z" fill="white"/>
<path d="M412.574 327.853C412.209 326.963 411.725 325.906 411.079 324.734C410.438 323.562 409.636 322.286 408.673 320.947C407.694 319.619 406.553 318.239 405.246 316.854C403.907 315.489 402.417 314.135 400.746 312.854C399.063 311.593 397.235 310.39 395.256 309.354C394.761 309.093 394.24 308.874 393.735 308.63C395.772 308.609 397.563 308.541 398.871 308.463C399.558 308.432 400.126 308.359 400.506 308.343C400.897 308.312 401.105 308.291 401.105 308.291C401.105 308.291 400.605 307.598 399.595 306.588C398.563 305.578 397.011 304.286 394.98 303.041C392.949 301.796 390.418 300.598 387.538 299.749C386.095 299.307 384.579 298.994 382.991 298.729C382.168 298.624 381.303 298.536 380.48 298.458L379.381 298.411L378.829 298.39L378.553 298.385H378.121C377.558 298.421 377.001 298.452 376.433 298.52L375.058 298.775C374.163 298.968 373.387 299.192 372.595 299.442C371.074 299.942 369.673 300.546 368.36 301.176C367.048 301.812 365.834 302.505 364.715 303.202C363.6 303.921 362.579 304.645 361.652 305.354C360.735 306.077 359.918 306.781 359.22 307.437C358.511 308.109 357.912 308.713 357.449 309.249C356.59 310.218 356.126 310.864 356.043 310.984C355.438 311.453 355.095 311.76 355.095 311.76C355.095 311.76 356.178 311.828 358.058 311.947C359.902 312.072 362.48 312.26 365.444 312.572C366.928 312.723 368.512 312.9 370.163 313.14C371.814 313.359 373.522 313.635 375.262 313.963C376.986 314.27 378.84 314.682 380.496 315.083C381.355 315.301 382.116 315.473 383.152 315.77L384.637 316.187L385.21 316.354L385.85 316.583C387.585 317.098 389.282 317.765 390.98 318.421C391.793 318.812 392.652 319.114 393.465 319.489C394.262 319.885 395.085 320.249 395.881 320.614C396.673 321.015 397.454 321.406 398.22 321.796C398.991 322.208 399.736 322.604 400.47 322.989C401.934 323.796 403.329 324.578 404.621 325.333C407.21 326.848 409.413 328.213 410.98 329.192C412.595 330.187 413.512 330.76 413.512 330.76C413.527 330.749 413.293 329.65 412.574 327.853L412.574 327.853Z" fill="white"/>
<path d="M187.014 350.027C187.165 350.548 187.258 351.094 187.258 351.667C187.258 355.094 184.472 357.881 181.045 357.881C177.618 357.881 174.831 355.105 174.831 351.667C174.831 348.235 177.618 345.454 181.045 345.454C181.836 345.454 182.597 345.61 183.295 345.886C180.472 343.646 176.909 342.303 173.019 342.303C163.873 342.303 156.456 349.719 156.456 358.865C156.456 368.006 163.873 375.428 173.019 375.428C182.165 375.428 189.581 368.006 189.581 358.865C189.592 355.61 188.633 352.579 187.014 350.027L187.014 350.027Z" fill="white"/>
<path d="M387.493 350.027C387.644 350.548 387.738 351.094 387.738 351.667C387.738 355.094 384.951 357.881 381.524 357.881C378.097 357.881 375.311 355.105 375.311 351.667C375.311 348.235 378.097 345.454 381.524 345.454C382.316 345.454 383.076 345.61 383.779 345.886C380.951 343.646 377.389 342.303 373.498 342.303C364.352 342.303 356.936 349.719 356.936 358.865C356.936 368.006 364.352 375.428 373.498 375.428C382.654 375.428 390.061 368.006 390.061 358.865C390.056 355.61 389.108 352.579 387.493 350.027L387.493 350.027Z" fill="white"/>
</svg>
